<?xml version="1.0" encoding="utf-8"?>
<svg xmlns="http://www.w3.org/2000/svg" viewBox="137.816 106.528 120 120" width="120px" height="120px">
  <rect width="120" height="120" rx="24" fill="#1E1E2F" x="137.816" y="106.528" style="stroke-width: 1;" transform="matrix(1, 0, 0, 1, 3.552713678800501e-15, 0)"/>
  <line x1="147.816" y1="196.528" x2="217.816" y2="126.528" stroke="#4ADE80" stroke-width="7" stroke-linecap="round" opacity="0.25" style="stroke-width: 7;" transform="matrix(1, 0, 0, 1, 3.552713678800501e-15, 0)"/>
  <line x1="157.816" y1="216.528" x2="247.816" y2="126.528" stroke="#4ADE80" stroke-width="7" stroke-linecap="round" opacity="0.25" style="stroke-width: 7;" transform="matrix(1, 0, 0, 1, 3.552713678800501e-15, 0)"/>
  <line x1="178.816" y1="215.528" x2="237.816" y2="156.528" stroke="#4ADE80" stroke-width="7" stroke-linecap="round" opacity="0.25" style="stroke-width: 7;" transform="matrix(1, 0, 0, 1, 3.552713678800501e-15, 0)"/>
  <circle cx="217.816" cy="126.528" r="7" fill="#4ADE80" fill-opacity="0.25" style="stroke-width: 1;" transform="matrix(1, 0, 0, 1, 3.552713678800501e-15, 0)"/>
  <circle cx="247.816" cy="126.528" r="7" fill="#4ADE80" fill-opacity="0.25" style="stroke-width: 1;" transform="matrix(1, 0, 0, 1, 3.552713678800501e-15, 0)"/>
  <circle cx="237.816" cy="156.528" r="7" fill="#4ADE80" fill-opacity="0.25" style="stroke-width: 1;" transform="matrix(1, 0, 0, 1, 3.552713678800501e-15, 0)"/>
  <line x1="187.816" y1="156.528" x2="217.816" y2="126.528" stroke="#4ADE80" stroke-width="3" stroke-linecap="round" style="stroke-width: 3;" transform="matrix(1, 0, 0, 1, 3.552713678800501e-15, 0)"/>
  <line x1="197.816" y1="176.528" x2="247.816" y2="126.528" stroke="#4ADE80" stroke-width="3" stroke-linecap="round" style="stroke-width: 3;" transform="matrix(1, 0, 0, 1, 3.552713678800501e-15, 0)"/>
  <line x1="217.816" y1="176.528" x2="237.816" y2="156.528" stroke="#4ADE80" stroke-width="3" stroke-linecap="round" style="stroke-width: 3;" transform="matrix(1, 0, 0, 1, 3.552713678800501e-15, 0)"/>
  <line x1="147.816" y1="196.528" x2="186.816" y2="157.528" stroke="#4ADE80" stroke-width="3" stroke-linecap="round" stroke-dasharray="5 4 2 6 1 8" style="stroke-width: 3;" transform="matrix(1, 0, 0, 1, 3.552713678800501e-15, 0)"/>
  <line x1="157.816" y1="216.528" x2="196.816" y2="177.528" stroke="#4ADE80" stroke-width="3" stroke-linecap="round" stroke-dasharray="5 4 2 6 1 8" style="stroke-width: 3;" transform="matrix(1, 0, 0, 1, 3.552713678800501e-15, 0)"/>
  <line x1="178.816" y1="215.528" x2="216.816" y2="177.528" stroke="#4ADE80" stroke-width="3" stroke-linecap="round" stroke-dasharray="5 4 2 6 1 8" style="stroke-width: 3;" transform="matrix(1, 0, 0, 1, 3.552713678800501e-15, 0)"/>
  <circle cx="217.816" cy="126.528" r="4" fill="#4ADE80" style="stroke-width: 1;" transform="matrix(1, 0, 0, 1, 3.552713678800501e-15, 0)"/>
  <circle cx="247.816" cy="126.528" r="4" fill="#4ADE80" style="stroke-width: 1;" transform="matrix(1, 0, 0, 1, 3.552713678800501e-15, 0)"/>
  <circle cx="237.816" cy="156.528" r="4" fill="#4ADE80" style="stroke-width: 1;" transform="matrix(1, 0, 0, 1, 3.552713678800501e-15, 0)"/>
</svg>